#define A_width 18
#define A_height 18
static unsigned char A_bits[] = {
   0xc0, 0x0f, 0x00, 0x70, 0x38, 0x00, 0x18, 0x60, 0x00, 0x0c, 0xc3, 0x00,
   0x06, 0x83, 0x01, 0x82, 0x07, 0x01, 0x83, 0x07, 0x03, 0x81, 0x0c, 0x02,
   0xc1, 0x0c, 0x02, 0xc1, 0x0c, 0x02, 0xe1, 0x1f, 0x02, 0x63, 0x18, 0x03,
   0x62, 0x18, 0x01, 0x36, 0xb0, 0x01, 0x0c, 0xc0, 0x00, 0x18, 0x60, 0x00,
   0x70, 0x38, 0x00, 0xc0, 0x0f, 0x00 };
