#define B_width 18
#define B_height 18
static unsigned char B_bits[] = {
   0xc0, 0x0f, 0x00, 0x70, 0x38, 0x00, 0x18, 0x60, 0x00, 0x0c, 0xc0, 0x00,
   0xc6, 0x8f, 0x01, 0xc2, 0x1f, 0x01, 0xc3, 0x18, 0x03, 0xc1, 0x18, 0x02,
   0xc1, 0x0f, 0x02, 0xc1, 0x0f, 0x02, 0xc1, 0x18, 0x02, 0xc3, 0x18, 0x03,
   0xc2, 0x18, 0x01, 0xc6, 0x9f, 0x01, 0x0c, 0xc0, 0x00, 0x18, 0x60, 0x00,
   0x70, 0x38, 0x00, 0xc0, 0x0f, 0x00 };
