#define D_Pad_20Right_width 18
#define D_Pad_20Right_height 18
static unsigned char D_Pad_20Right_bits[] = {
   0xc0, 0x0f, 0x00, 0x40, 0x08, 0x00, 0x20, 0x10, 0x00, 0x20, 0x10, 0x00,
   0x20, 0x10, 0x00, 0x3c, 0xf0, 0x00, 0x03, 0xf0, 0x03, 0x01, 0xf0, 0x03,
   0x01, 0xf0, 0x03, 0x01, 0xf0, 0x03, 0x01, 0xf0, 0x03, 0x03, 0xf0, 0x03,
   0x3c, 0xf0, 0x00, 0x20, 0x10, 0x00, 0x20, 0x10, 0x00, 0x20, 0x10, 0x00,
   0x40, 0x08, 0x00, 0xc0, 0x0f, 0x00 };
