#define D_Pad_20Down_width 18
#define D_Pad_20Down_height 18
static unsigned char D_Pad_20Down_bits[] = {
   0xc0, 0x0f, 0x00, 0x40, 0x08, 0x00, 0x20, 0x10, 0x00, 0x20, 0x10, 0x00,
   0x20, 0x10, 0x00, 0x3c, 0xf0, 0x00, 0x03, 0x00, 0x03, 0x01, 0x00, 0x02,
   0x01, 0x00, 0x02, 0x01, 0x00, 0x02, 0x01, 0x00, 0x02, 0x03, 0x00, 0x03,
   0xfc, 0xff, 0x00, 0xe0, 0x1f, 0x00, 0xe0, 0x1f, 0x00, 0xe0, 0x1f, 0x00,
   0xc0, 0x0f, 0x00, 0xc0, 0x0f, 0x00 };
