#define Left_20Bumper_width 30
#define Left_20Bumper_height 18
static unsigned char Left_20Bumper_bits[] = {
   0x00, 0x80, 0x7f, 0x00, 0x00, 0xfe, 0xff, 0x01, 0xc0, 0x1f, 0x80, 0x03,
   0xf0, 0x01, 0x00, 0x07, 0x3c, 0x00, 0x00, 0x0e, 0x0e, 0x00, 0x00, 0x1c,
   0x06, 0x8c, 0x0f, 0x18, 0x06, 0x8c, 0x19, 0x30, 0x06, 0x8c, 0x0f, 0x30,
   0x06, 0x8c, 0x1f, 0x30, 0x06, 0x8c, 0x19, 0x10, 0x02, 0xfc, 0x1f, 0x18,
   0x03, 0x00, 0x00, 0x18, 0x03, 0x00, 0x00, 0x18, 0x03, 0x00, 0x00, 0x0c,
   0x03, 0x00, 0x00, 0x0c, 0xfe, 0xff, 0xff, 0x07, 0xfc, 0xff, 0xff, 0x03 };
