#define Left_20Stick_20Click_width 24
#define Left_20Stick_20Click_height 18
static unsigned char Left_20Stick_20Click_bits[] = {
   0x00, 0xff, 0x00, 0x00, 0x7e, 0x00, 0x00, 0x3c, 0x00, 0x00, 0x18, 0x00,
   0xfc, 0xff, 0x3f, 0x02, 0x00, 0xc0, 0x01, 0x00, 0x80, 0x01, 0x00, 0x80,
   0x03, 0x04, 0x80, 0xfe, 0x04, 0x7e, 0xc0, 0x04, 0x03, 0x80, 0x04, 0x03,
   0x80, 0x04, 0x03, 0x80, 0x3c, 0x03, 0x80, 0x00, 0x03, 0x80, 0x00, 0x03,
   0x80, 0x00, 0x01, 0x80, 0xff, 0x01 };
