#define Left_20Trigger_width 17
#define Left_20Trigger_height 18
static unsigned char Left_20Trigger_bits[] = {
   0xfe, 0x7f, 0x00, 0x02, 0xc0, 0x00, 0x03, 0xc0, 0x00, 0x01, 0x40, 0x00,
   0x01, 0x40, 0x00, 0x01, 0x40, 0x00, 0x21, 0x47, 0x00, 0x21, 0x42, 0x00,
   0x21, 0x42, 0x00, 0x21, 0x42, 0x00, 0xe3, 0x42, 0x00, 0x02, 0x40, 0x00,
   0x06, 0x40, 0x00, 0x04, 0xc0, 0x00, 0x0c, 0x80, 0x00, 0x38, 0x80, 0x01,
   0xe0, 0x80, 0x01, 0x80, 0xff, 0x00 };
