#define Menu_width 18
#define Menu_height 18
static unsigned char Menu_bits[] = {
   0xc0, 0x0f, 0x00, 0x70, 0x38, 0x00, 0x18, 0x60, 0x00, 0x0c, 0xc0, 0x00,
   0x06, 0x80, 0x01, 0x02, 0x00, 0x01, 0xe3, 0x1f, 0x03, 0x01, 0x00, 0x02,
   0xe1, 0x1f, 0x02, 0x01, 0x00, 0x02, 0x01, 0x00, 0x02, 0xe3, 0x1f, 0x03,
   0x02, 0x00, 0x01, 0x06, 0x80, 0x01, 0x0c, 0xc0, 0x00, 0x18, 0x60, 0x00,
   0x70, 0x38, 0x00, 0xc0, 0x0f, 0x00 };
