#define Right_20Bumper_width 30
#define Right_20Bumper_height 18
static unsigned char Right_20Bumper_bits[] = {
   0x80, 0x7f, 0x00, 0x00, 0xe0, 0xff, 0x1f, 0x00, 0x70, 0x00, 0xfe, 0x00,
   0x38, 0x00, 0xe0, 0x03, 0x1c, 0x00, 0x00, 0x0f, 0x0e, 0x00, 0x00, 0x1c,
   0x06, 0x7c, 0x1f, 0x18, 0x03, 0x6c, 0x13, 0x18, 0x03, 0x6c, 0x1f, 0x18,
   0x03, 0x7c, 0x1f, 0x18, 0x02, 0x3c, 0x33, 0x18, 0x06, 0x6c, 0x3f, 0x10,
   0x06, 0x00, 0x00, 0x30, 0x06, 0x00, 0x00, 0x30, 0x0c, 0x00, 0x00, 0x30,
   0x0c, 0x00, 0x00, 0x30, 0xf8, 0xff, 0xff, 0x1f, 0xf0, 0xff, 0xff, 0x0f };
