#define Right_20Trigger_width 17
#define Right_20Trigger_height 18
static unsigned char Right_20Trigger_bits[] = {
   0xfc, 0xff, 0x00, 0x06, 0x80, 0x00, 0x06, 0x80, 0x01, 0x04, 0x00, 0x01,
   0x04, 0x00, 0x01, 0x04, 0x00, 0x01, 0xe4, 0x1f, 0x01, 0x24, 0x09, 0x01,
   0xe4, 0x09, 0x01, 0xa4, 0x09, 0x01, 0x24, 0x89, 0x01, 0x04, 0x80, 0x00,
   0x04, 0xc0, 0x00, 0x06, 0x40, 0x00, 0x02, 0x60, 0x00, 0x03, 0x38, 0x00,
   0x03, 0x0e, 0x00, 0xfe, 0x03, 0x00 };
