#define Right_20Stick_20Click_width 24
#define Right_20Stick_20Click_height 18
static unsigned char Right_20Stick_20Click_bits[] = {
   0x00, 0xff, 0x00, 0x00, 0x7e, 0x00, 0x00, 0x3c, 0x00, 0x00, 0x18, 0x00,
   0xfc, 0xff, 0x3f, 0x02, 0x00, 0xc0, 0x01, 0x00, 0x80, 0x01, 0x00, 0x80,
   0x03, 0x3c, 0x80, 0xfe, 0x6c, 0x7e, 0xc0, 0x64, 0x03, 0x80, 0x3c, 0x03,
   0x80, 0x34, 0x03, 0x80, 0x64, 0x03, 0x80, 0x00, 0x03, 0x80, 0x00, 0x03,
   0x80, 0x00, 0x01, 0x80, 0xff, 0x01 };
