#define View_width 18
#define View_height 18
static unsigned char View_bits[] = {
   0xc0, 0x0f, 0x00, 0x70, 0x38, 0x00, 0x18, 0x60, 0x00, 0x0c, 0xc0, 0x00,
   0xe6, 0x83, 0x01, 0xf2, 0x07, 0x01, 0x13, 0x04, 0x03, 0x11, 0x00, 0x02,
   0x11, 0x3f, 0x02, 0x71, 0x21, 0x02, 0x01, 0x21, 0x02, 0x03, 0x21, 0x03,
   0x02, 0x3f, 0x01, 0x06, 0x9f, 0x01, 0x0c, 0xc0, 0x00, 0x18, 0x60, 0x00,
   0x70, 0x38, 0x00, 0xc0, 0x0f, 0x00 };
