#define X_width 18
#define X_height 18
static unsigned char X_bits[] = {
   0xc0, 0x0f, 0x00, 0x70, 0x38, 0x00, 0x18, 0x60, 0x00, 0x0c, 0xc0, 0x00,
   0x66, 0x98, 0x01, 0x62, 0x18, 0x01, 0xc3, 0x0c, 0x03, 0x81, 0x07, 0x02,
   0x81, 0x07, 0x02, 0x01, 0x03, 0x02, 0x81, 0x07, 0x02, 0xc3, 0x0f, 0x03,
   0xc2, 0x0c, 0x01, 0x66, 0x98, 0x01, 0x2c, 0xd0, 0x00, 0x18, 0x60, 0x00,
   0x70, 0x38, 0x00, 0xc0, 0x0f, 0x00 };
