#define Y_width 18
#define Y_height 18
static unsigned char Y_bits[] = {
   0xc0, 0x0f, 0x00, 0x70, 0x38, 0x00, 0x18, 0x60, 0x00, 0x0c, 0xc0, 0x00,
   0x66, 0x90, 0x01, 0x62, 0x18, 0x01, 0xe3, 0x1c, 0x03, 0xc1, 0x0c, 0x02,
   0x81, 0x07, 0x02, 0x81, 0x07, 0x02, 0x01, 0x03, 0x02, 0x03, 0x03, 0x03,
   0x02, 0x03, 0x01, 0x06, 0x83, 0x01, 0x0c, 0xc3, 0x00, 0x18, 0x60, 0x00,
   0x70, 0x38, 0x00, 0xc0, 0x0f, 0x00 };
